<svg height="512" viewBox="0 0 64 64" width="512" xmlns="http://www.w3.org/2000/svg"><g id="Racing_Car-3" data-name="Racing Car"><circle cx="17" cy="42" fill="#57565c" r="6"/><circle cx="49" cy="42" fill="#57565c" r="6"/><path d="m7 22 2 4h-4l-2-4z" fill="#ff5023"/><path d="m5 30v-4h21l8 16h-11a6 6 0 0 0 -12 0h-4a2.006 2.006 0 0 1 -2-2z" fill="#ff6243"/><path d="m61 38v2a2.006 2.006 0 0 1 -2 2h-4a6 6 0 0 0 -12 0h-9l-8-16h27a7.969 7.969 0 0 1 6.92 4h-3.92a1 1 0 0 0 -1 1v2a1 1 0 0 0 1 1h5z" fill="#ff7956"/><path d="m21 16 5 10h-17z" fill="#d1d3d4"/><path d="m61 34h-5a1 1 0 0 1 -1-1v-2a1 1 0 0 1 1-1h3.92a7.851 7.851 0 0 1 1.08 4z" fill="#e6e7e8"/><path d="m50 26h-24l-5-10h14z" fill="#e6e7e8"/><path d="m53 25h-2.7l-14.745-9.832a1.006 1.006 0 0 0 -.555-.168h-14a1 1 0 0 0 -.64.232l-11.03 9.192-1.43-2.871a1 1 0 0 0 -.9-.553h-4a1 1 0 0 0 -.895 1.447l1.895 3.789v13.764a3 3 0 0 0 3 3h3.08a6.991 6.991 0 0 0 13.84 0h18.16a6.991 6.991 0 0 0 13.84 0h3.08a3 3 0 0 0 3-3v-6a9.011 9.011 0 0 0 -9-9zm6.315 6a6.937 6.937 0 0 1 .605 2h-3.92v-2zm-12.615-6h-20.082l-4-8h12.082zm-22.318 0h-12.62l8.908-7.424zm-18-2 1 2h-1.764l-1-2zm-.382 17v-9h3v-2h-3v-2h19.382l7 14h-8.462a6.991 6.991 0 0 0 -13.84 0h-3.08a1 1 0 0 1 -1-1zm11 7a5 5 0 1 1 5-5 5.006 5.006 0 0 1 -5 5zm32 0a5 5 0 1 1 5-5 5.006 5.006 0 0 1 -5 5zm10-6h-3.08a6.991 6.991 0 0 0 -13.84 0h-7.462l-7-14h25.382a6.976 6.976 0 0 1 4.89 2h-1.89a2 2 0 0 0 -2 2v2a2 2 0 0 0 2 2h4v2h-3v2h3v1a1 1 0 0 1 -1 1z"/><path d="m32 29h4v2h-4z"/><path d="m16 41h2v2h-2z"/><path d="m48 41h2v2h-2z"/></g></svg>