<?xml version="1.0" encoding="UTF-8"?>
<svg xmlns="http://www.w3.org/2000/svg" xmlns:xlink="http://www.w3.org/1999/xlink" width="512" height="512" viewBox="0 0 60 60" version="1.1"><!-- Generator: Sketch 51.3 (57544) - http://www.bohemiancoding.com/sketch --><title>020 - Racing Flag</title><desc>Created with Sketch.</desc><defs/><g id="Page-1" stroke="none" stroke-width="1" fill="none" fill-rule="evenodd"><g id="020---Racing-Flag" transform="translate(0.000000, -1.000000)" fill-rule="nonzero"><path d="M40.82,34.07 C40.54,34.08 40.26,34.1 39.98,34.13 C37.5162038,34.4212749 35.071895,34.8587126 32.66,35.44 C30.2469266,36.0132419 27.8028949,36.4472913 25.34,36.74 C24.0941552,36.8695483 22.8393515,36.8896252 21.59,36.8 C21.87,36.79 22.15,36.77 22.43,36.74 C24.8928949,36.4472913 27.3369266,36.0132419 29.75,35.44 C32.161895,34.8587126 34.6062038,34.4212749 37.07,34.13 C38.3158448,34.0004517 39.5706485,33.9803748 40.82,34.07 Z" id="Shape" fill="#CFD8DC"/><path d="M58.89,12.53 L57.5,18.73 L56,25.42 L54.5,32.12 L53.41,36.98 C53.3328683,37.3257403 53.0785789,37.6048729 52.7415042,37.7138056 C52.4044296,37.8227382 52.0348787,37.7452125 51.77,37.51 C51.3992196,37.16105 51.0085673,36.833837 50.6,36.53 L51.59,32.12 L53.09,25.42 L54.59,18.73 L55.98,12.53 C56.05231,12.2135873 55.9665573,11.8817615 55.75,11.64 C54.2176112,9.87472587 52.2226839,8.57248165 49.99,7.88 C48.9599916,7.56197203 47.895887,7.3672778 46.82,7.3 C48.8651028,7.1124142 50.9272497,7.30913215 52.9,7.88 C55.1326839,8.57248165 57.1276112,9.87472587 58.66,11.64 C58.8765573,11.8817615 58.96231,12.2135873 58.89,12.53 Z" id="Shape" fill="#CFD8DC"/><path d="M55.98,12.53 L54.59,18.73 L53.09,25.42 L51.59,32.12 L50.6,36.53 C49.4817604,35.6987598 48.2307057,35.0630888 46.9,34.65 C44.9273428,34.0786436 42.8651037,33.8819169 40.82,34.07 C39.5706485,33.9803748 38.3158448,34.0004517 37.07,34.13 C34.6062038,34.4212749 32.161895,34.8587126 29.75,35.44 C27.3369266,36.0132419 24.8928949,36.4472913 22.43,36.74 C22.15,36.77 21.87,36.79 21.59,36.8 C20.514113,36.7327222 19.4500084,36.538028 18.42,36.22 L18.42,36.21 C16.022406,35.4574535 13.9003672,34.0137714 12.32,32.06 L13.82,25.37 L15.33,18.67 L16.83,11.98 L17.82,7.56 L18.33,5.28 C19.9100038,7.23635857 22.0318215,8.68336866 24.43,9.44 C25.4600084,9.75802797 26.524113,9.9527222 27.6,10.02 C28.8460166,10.1096207 30.0974994,10.0895434 31.34,9.96 C33.803614,9.67216342 36.2479291,9.23806374 38.66,8.66 C41.0766163,8.08759199 43.5239278,7.65355311 45.99,7.36 C46.27,7.33 46.54,7.31 46.82,7.3 C47.895887,7.3672778 48.9599916,7.56197203 49.99,7.88 C52.2226839,8.57248165 54.2176112,9.87472587 55.75,11.64 C55.9665573,11.8817615 56.05231,12.2135873 55.98,12.53 Z" id="Shape" fill="#F5F5F5"/><path d="M46.82,7.3 C46.54,7.31 46.27,7.33 45.99,7.36 C43.5239278,7.65355311 41.0766163,8.08759199 38.66,8.66 C36.2479291,9.23806374 33.803614,9.67216342 31.34,9.96 C30.0974994,10.0895434 28.8460166,10.1096207 27.6,10.02 C27.88,10.01 28.15,9.99 28.43,9.96 C30.893614,9.67216342 33.3379291,9.23806374 35.75,8.66 C38.1666163,8.08759199 40.6139278,7.65355311 43.08,7.36 C44.3225006,7.23045657 45.5739834,7.21037931 46.82,7.3 Z" id="Shape" fill="#F5F5F5"/><path d="M22.93,16.14 C22.42,18.37 21.92,20.59 21.42,22.82 C19.0254119,22.0669942 16.9067109,20.623216 15.33,18.67 L16.83,11.98 C18.4100038,13.9363586 20.5318215,15.3833687 22.93,16.14 Z" id="Shape" fill="#545C60"/><path d="M19.92,29.52 C19.82,29.97 19.72,30.41 19.62,30.86 C19.22,32.65 18.82,34.4333333 18.42,36.21 C16.022406,35.4574535 13.9003672,34.0137714 12.32,32.06 L13.82,25.37 C15.3974993,27.3268844 17.5205635,28.7712642 19.92,29.52 Z" id="Shape" fill="#545C60"/><path d="M31.34,9.96 C30.84,12.19 30.34,14.43 29.84,16.66 C27.5250268,16.9487985 25.17568,16.7720025 22.93,16.14 C23.42,13.91 23.93,11.67 24.43,9.44 C26.6757457,10.07163 29.0250175,10.2484204 31.34,9.96 Z" id="Shape" fill="#545C60"/><path d="M34.16,28.74 C34.06,29.19 33.96,29.63 33.86,30.08 C33.46,31.87 33.06,33.65 32.66,35.44 C30.2469266,36.0132419 27.8028949,36.4472913 25.34,36.74 C25.74,34.95 26.14,33.17 26.54,31.38 C26.64,30.93 26.74,30.49 26.84,30.04 C29.3026392,29.7455671 31.7465729,29.3115351 34.16,28.74 Z" id="Shape" fill="#545C60"/><path d="M45.99,7.36 L44.49,14.05 C42.0230287,14.3421236 39.5754424,14.7795503 37.16,15.36 C37.66,13.13 38.16,10.89 38.66,8.66 C41.0766163,8.08759199 43.5239278,7.65355311 45.99,7.36 Z" id="Shape" fill="#545C60"/><path d="M48.4,27.97 C48.3,28.41 48.2,28.86 48.1,29.3 C47.7,31.08 47.3,32.87 46.9,34.65 C44.6509037,34.0179908 42.2982897,33.8412048 39.98,34.13 C40.38,32.35 40.78,30.56 41.18,28.78 C41.28,28.33 41.38,27.89 41.48,27.44 C43.7988456,27.1498515 46.1523859,27.3301082 48.4,27.97 Z" id="Shape" fill="#545C60"/><path d="M56,25.42 L54.5,32.12 C54.4320381,32.0320892 54.3585566,31.9485875 54.28,31.87 C53.665904,31.1634039 52.9824834,30.5201845 52.24,29.95 C51.0876776,29.0672952 49.7873826,28.3968305 48.4,27.97 C48.9,25.74 49.4,23.5066667 49.9,21.27 C51.2957764,21.6960363 52.6033429,22.3701444 53.76,23.26 C54.5522885,23.8703815 55.2764718,24.5643904 55.92,25.33 C55.95,25.36 55.97,25.39 56,25.42 Z" id="Shape" fill="#545C60"/><path d="M58.89,12.53 L58.85,12.7 L57.5,18.73 C56.8391414,17.9388793 56.0948317,17.2213916 55.28,16.59 L55.28,16.58 C54.1178329,15.6848467 52.803342,15.007274 51.4,14.58 C51.9,12.35 52.4,10.1166667 52.9,7.88 C54.3107334,8.3062274 55.6298479,8.99121748 56.79,9.9 C57.1948863,10.2077068 57.5790522,10.5417641 57.94,10.9 C57.9455228,10.9 57.95,10.9044772 57.95,10.91 C58.19,11.14 58.43,11.38 58.66,11.64 C58.8765573,11.8817615 58.96231,12.2135873 58.89,12.53 Z" id="Shape" fill="#545C60"/><path d="M51.4,14.58 L49.9,21.27 C47.6558068,20.6301017 45.3055296,20.4498344 42.99,20.74 L44.49,14.05 C46.8055296,13.7598344 49.1558068,13.9401017 51.4,14.58 Z" id="Shape" fill="#545C60"/><path d="M28.34,23.35 L26.84,30.04 C24.5219663,30.3388205 22.1673449,30.1618837 19.92,29.52 C20.42,27.29 20.92,25.05 21.42,22.82 C23.6675414,23.4602984 26.0211644,23.6405614 28.34,23.35 Z" id="Shape" fill="#545C60"/><path d="M37.16,15.36 C36.66,17.59 36.16,19.81 35.66,22.04 C33.2479251,22.6204295 30.8036674,23.0578581 28.34,23.35 L29.84,16.66 C32.302767,16.3664282 34.7467495,15.9323875 37.16,15.36 Z" id="Shape" fill="#545C60"/><path d="M42.99,20.74 C42.48,22.97 41.98,25.21 41.48,27.44 C39.0171051,27.7327087 36.5730734,28.1667581 34.16,28.74 C34.66,26.51 35.16,24.27 35.66,22.04 C38.0766163,21.467592 40.5239278,21.0335531 42.99,20.74 Z" id="Shape" fill="#545C60"/><path d="M19.38,4.77 C19.3764543,4.9718153 19.3530074,5.17278856 19.31,5.37 L7.54,57.86 C7.38186148,58.5707774 6.94661994,59.1890613 6.3308377,59.57768 C5.71505545,59.9662987 4.96965132,60.0931173 4.26,59.93 L4.16,59.9 C2.73601685,59.5282946 1.86118373,58.0967495 2.18,56.66 L13.95,4.16 C14.2867764,2.68450856 15.7531887,1.75905937 17.23,2.09 L17.25,2.09 C18.4949725,2.3822558 19.3763265,3.49118939 19.38,4.77 Z" id="Shape" fill="#825A2C"/><path d="M18.22,4.77 C18.2164543,4.9718153 18.1930074,5.17278856 18.15,5.37 L6.38,57.86 C6.22186148,58.5707774 5.78661994,59.1890613 5.1708377,59.57768 C4.55505545,59.9662987 3.80965132,60.0931173 3.1,59.93 L3,59.9 L16.09,2.09 C17.3349725,2.3822558 18.2163265,3.49118939 18.22,4.77 Z" id="Shape" fill="#624421"/><path d="M55.92,25.33 L54.28,31.87 C53.665904,31.1634039 52.9824834,30.5201845 52.24,29.95 L53.76,23.26 C54.5522885,23.8703815 55.2764718,24.5643904 55.92,25.33 Z" id="Shape" fill="#37474F"/><path d="M58.85,12.7 L57.5,18.73 C56.8391414,17.9388793 56.0948317,17.2213916 55.28,16.59 L55.28,16.58 L56.79,9.9 L57,9 L57.94,10.9 C57.9455228,10.9 57.95,10.9044772 57.95,10.91 L58.85,12.7 Z" id="Shape" fill="#37474F"/><path d="M52.416,38.772 C51.9200748,38.7721686 51.4429746,38.582116 51.083,38.241 C46.076,33.541 39.661,34.941 32.872,36.414 C25.315,38.055 17.502,39.753 11.559,32.706 C11.3577285,32.4670827 11.2796732,32.147833 11.348,31.843 L17.348,5.065 C17.4311425,4.69441605 17.7170391,4.40291739 18.0859401,4.31260025 C18.4548411,4.22228311 18.8430644,4.34873862 19.088,4.639 C24.253,10.766 31.149,9.267 38.447,7.681 C45.852,6.074 53.5,4.413 59.4,10.973 C59.833147,11.456111 60.0050093,12.119328 59.861,12.752 L54.381,37.2 C54.174191,38.1188856 53.3578707,38.7715263 52.416,38.771 L52.416,38.772 Z M42.336,33.013 C46.0755232,32.8703814 49.7170542,34.2276303 52.451,36.783 L57.912,12.315 C52.791,6.615 46.031,8.081 38.876,9.636 C31.876,11.158 24.645,12.728 18.893,7.336 L13.41,31.787 C18.539,37.48 25.298,36.012 32.447,34.459 C35.6836951,33.6324998 38.9981692,33.1478472 42.336,33.013 Z" id="Shape" fill="#000000"/><path d="M18.423,37.22 C18.3490231,37.2198246 18.2752747,37.2117794 18.203,37.196 C17.9438969,37.1379939 17.7184996,36.979325 17.5764968,36.7549719 C17.434494,36.5306188 17.3875451,36.2590022 17.446,36 L23.446,9.222 C23.5163062,8.86548565 23.7744759,8.57516798 24.1203358,8.46369416 C24.4661956,8.35222035 24.8453067,8.43713656 25.1105687,8.68549416 C25.3758308,8.93385176 25.4854911,9.30655884 25.397,9.659 L19.397,36.436 C19.2958787,36.8931088 18.8911588,37.2188792 18.423,37.22 Z" id="Shape" fill="#000000"/><path d="M25.337,37.738 C25.2630201,37.737878 25.1892661,37.7298321 25.117,37.714 C24.5783593,37.5931651 24.2395193,37.0587201 24.36,36.52 L30.36,9.742 C30.4303062,9.38548565 30.6884759,9.09516798 31.0343358,8.98369416 C31.3801956,8.87222035 31.7593067,8.95713656 32.0245687,9.20549416 C32.2898308,9.45385176 32.3994911,9.82655884 32.311,10.179 L26.311,36.957 C26.2086709,37.4129168 25.8042587,37.7371939 25.337,37.738 Z" id="Shape" fill="#000000"/><path d="M32.66,36.437 C32.5859597,36.4369701 32.5121592,36.4285837 32.44,36.412 C31.9017656,36.2907045 31.5634657,35.7564054 31.684,35.218 L37.684,8.44 C37.8046742,7.90097008 38.3394701,7.56182578 38.8785,7.6825 C39.4175299,7.80317422 39.7566742,8.33797008 39.636,8.877 L33.635,35.655 C33.5329908,36.1116789 33.127933,36.436556 32.66,36.437 Z" id="Shape" fill="#000000"/><path d="M39.983,35.134 C39.9093506,35.1338757 39.8359283,35.1258295 39.764,35.11 C39.2253593,34.9891651 38.8865193,34.4547201 39.007,33.916 L45.007,7.138 C45.0773062,6.78148565 45.3354759,6.49116798 45.6813358,6.37969416 C46.0271956,6.26822035 46.4063067,6.35313656 46.6715687,6.60149416 C46.9368308,6.84985176 47.0464911,7.22255884 46.958,7.575 L40.958,34.353 C40.8555884,34.8092815 40.4506332,35.133661 39.983,35.134 Z" id="Shape" fill="#000000"/><path d="M46.9,35.652 C46.8263241,35.6523691 46.7528473,35.6443168 46.681,35.628 C46.1423593,35.5071651 45.8035193,34.9727201 45.924,34.434 L51.924,7.656 C51.9943062,7.29948565 52.2524759,7.00916798 52.5983358,6.89769416 C52.9441956,6.78622035 53.3233067,6.87113656 53.5885687,7.11949416 C53.8538308,7.36785176 53.9634911,7.74055884 53.875,8.093 L47.875,34.871 C47.7725884,35.3272815 47.3676332,35.651661 46.9,35.652 Z" id="Shape" fill="#000000"/><path d="M56,26.422 C55.7046202,26.4222877 55.4242245,26.2919733 55.234,26.066 C50.068,19.941 43.174,21.44 35.875,23.024 C28.318,24.667 20.505,26.364 14.562,19.317 C14.3263237,19.0445022 14.2554456,18.6662966 14.376459,18.3269529 C14.4974723,17.9876092 14.7916676,17.7395924 15.1465881,17.6777073 C15.5015087,17.6158222 15.8622813,17.7496367 16.091,18.028 C21.258,24.155 28.152,22.656 35.45,21.07 C43.007,19.428 50.82,17.73 56.764,24.777 C57.0149831,25.0743596 57.0706812,25.4903088 56.9067738,25.8432247 C56.7428663,26.1961406 56.3891211,26.421929 56,26.422 Z" id="Shape" fill="#000000"/><path d="M57.5,19.728 C57.2046202,19.7282877 56.9242245,19.5979733 56.734,19.372 C51.569,13.246 44.674,14.745 37.375,16.33 C29.818,17.972 22,19.67 16.062,12.623 C15.7145124,12.2000884 15.7715995,11.5763959 16.1900888,11.2235949 C16.6085782,10.8707939 17.2329419,10.9199997 17.591,11.334 C22.758,17.46 29.652,15.961 36.95,14.376 C44.507,12.733 52.321,11.035 58.264,18.083 C58.5149831,18.3803596 58.5706812,18.7963088 58.4067738,19.1492247 C58.2428663,19.5021406 57.8891211,19.727929 57.5,19.728 Z" id="Shape" fill="#000000"/><path d="M54.5,33.117 C54.2046202,33.1172877 53.9242245,32.9869733 53.734,32.761 C48.569,26.637 41.674,28.133 34.375,29.719 C26.816,31.36 19,33.058 13.06,26.012 C12.8243237,25.7395022 12.7534456,25.3612966 12.874459,25.0219529 C12.9954723,24.6826092 13.2896676,24.4345924 13.6445881,24.3727073 C13.9995087,24.3108222 14.3602813,24.4446367 14.589,24.723 C19.754,30.848 26.647,29.349 33.948,27.765 C41.506,26.123 49.319,24.426 55.262,31.472 C55.5129831,31.7693596 55.5686812,32.1853088 55.4047738,32.5382247 C55.2408663,32.8911406 54.8871211,33.116929 54.498,33.117 L54.5,33.117 Z" id="Shape" fill="#000000"/><path d="M3.861,61 C2.72406894,61.0002811 1.64863853,60.483796 0.938094981,59.5962487 C0.227551433,58.7087015 -0.0410739045,57.5463126 0.208,56.437 L11.978,3.946 C12.2590244,2.62866759 13.2260166,1.56382808 14.510249,1.15751971 C15.7944814,0.751211333 17.1979851,1.06606796 18.1855843,1.98203033 C19.1731836,2.8979927 19.5926366,4.27386201 19.284,5.585 L7.515,58.075 C7.12896601,59.7833258 5.61239719,60.9973279 3.861,61 Z M15.631,3.021 C14.8157113,3.02299557 14.1102029,3.58864726 13.931,4.384 L2.159,56.875 C1.99003077,57.4945043 2.17516125,58.1567463 2.6408954,58.5988186 C3.10662956,59.0408909 3.77761654,59.1912709 4.38747735,58.9902584 C4.99733815,58.7892459 5.44740375,58.2693626 5.559,57.637 L17.329,5.147 C17.5389978,4.20718088 16.9484187,3.27478179 16.009,3.063 C15.8848515,3.03560095 15.7581349,3.02152132 15.631,3.021 Z" id="Shape" fill="#000000"/></g></g></svg>
